<svg xmlns="http://www.w3.org/2000/svg" xmlns:xlink="http://www.w3.org/1999/xlink" width="48" height="48" viewBox="0 0 48 48"><path fill="#7E57C2" d="M25.016,4L10.751,7.206C10.456,7.282,8,7.873,8,9.29v26.702C8.373,36,8.719,36,9.016,36l16-5c0,0,1-0.375,1-2c0-1,0-24.002,0-24.002C26.016,4.447,25.568,4,25.016,4z"/><path fill="#4527A0" d="M25.016,4L10.751,7.206C10.456,7.282,8,7.873,8,9.29v26.702C8.373,36,8.719,36,9.016,36l16-5c0,0,1-0.375,1-2c0-1,0-24.002,0-24.002C26.016,4.447,25.568,4,25.016,4z"/><path fill="#7E57C2" d="M31,7.29l-16,4c-2.25,0.583-7.016,1-7-2H7.984c0,9.66,0,26.71,0,26.71H8c-0.016,3,4.793,3,7,3l16-5c0,0,1-0.375,1-2c0-1,0-23.712,0-23.712C32,7.737,31.553,7.29,31,7.29z"/><path fill="#7E57C2" d="M33.016,8.625l-14.265,3.581C18.456,12.282,16,12.873,16,14.29v26.702C16.373,41,16.719,41,17.016,41l16-5c0,0,1-0.375,1-2c0-1,0-24.377,0-24.377C34.016,9.072,33.568,8.625,33.016,8.625z"/><path fill="#BF360C" d="M33.016,8.625l-14.265,3.581C18.456,12.282,16,12.873,16,14.29v26.702C16.373,41,16.719,41,17.016,41l16-5c0,0,1-0.375,1-2c0-1,0-24.377,0-24.377C34.016,9.072,33.568,8.625,33.016,8.625z"/><path fill="#7E57C2" d="M16,40.992c-0.016,3,4.793,3.008,7,3.008l16-5.333c0,0,1-0.375,1-2c0-1,0-23.667,0-23.667c0-0.551-0.447-0.998-1-0.998L23,16.29c-2.25,0.583-7.016,1-7-2"/><path fill="#FF3D00" d="M16,40.992c-0.016,3,4.793,3.008,7,3.008l16-5.333c0,0,1-0.375,1-2c0-1,0-23.667,0-23.667c0-0.551-0.447-0.998-1-0.998L23,16.29c-2.25,0.583-7.016,1-7-2"/><g><path fill="#FFE0B2" d="M11 10.542c.755.437 1.962.749 3.021.958.357-.063.689-.134.979-.209l14.516-3.629L25 6 12.083 9.125C12.083 9.125 9.417 9.626 11 10.542zM19 15.542c.755.437 1.962.749 3.021.958.357-.063.689-.134.979-.209l14.894-3.992L33 10.625l-12.917 3.5C20.083 14.125 17.417 14.626 19 15.542z"/></g><path fill="#FFECB3" d="M38 25L38 20 24 24 24 29z"/></svg>