<svg xmlns="http://www.w3.org/2000/svg" xmlns:xlink="http://www.w3.org/1999/xlink" viewBox="0 0 100 100"><path fill="#f15b6c" d="M74.5 14A5.5 5.5 0 1 0 74.5 25A5.5 5.5 0 1 0 74.5 14Z"/><path fill="#b3b2c3" d="M91,43.5c0-4.694-3.806-8.5-8.5-8.5c-2.377,0-4.524,0.978-6.066,2.551C69.484,32.865,60.201,30,50,30s-19.484,2.865-26.434,7.551C22.024,35.978,19.877,35,17.5,35C12.806,35,9,38.806,9,43.5c0,2.865,1.422,5.394,3.594,6.934C11.563,52.992,11,55.697,11,58.5C11,74.24,28.461,87,50,87s39-12.76,39-28.5c0-2.803-0.563-5.508-1.594-8.066C89.578,48.894,91,46.365,91,43.5z"/><path fill="#f15b6c" d="M65 48A6 6 0 1 0 65 60 6 6 0 1 0 65 48zM35 48A6 6 0 1 0 35 60 6 6 0 1 0 35 48z"/><path fill="#1f212b" d="M74.5 26c-3.584 0-6.5-2.916-6.5-6.5s2.916-6.5 6.5-6.5 6.5 2.916 6.5 6.5S78.084 26 74.5 26zM74.5 15c-2.481 0-4.5 2.019-4.5 4.5s2.019 4.5 4.5 4.5 4.5-2.019 4.5-4.5S76.981 15 74.5 15zM50 88c-22.056 0-40-13.233-40-29.5 0-2.612.469-5.21 1.395-7.731C9.256 48.972 8 46.309 8 43.5c0-5.238 4.262-9.5 9.5-9.5 2.29 0 4.453.805 6.174 2.282C30.964 31.581 40.277 29 50 29s19.036 2.581 26.326 7.282C78.047 34.805 80.21 34 82.5 34c5.238 0 9.5 4.262 9.5 9.5 0 2.809-1.256 5.472-3.395 7.269C89.531 53.29 90 55.888 90 58.5 90 74.767 72.056 88 50 88zM17.5 36c-4.136 0-7.5 3.364-7.5 7.5 0 2.424 1.187 4.71 3.173 6.117.378.269.522.761.35 1.19C12.512 53.312 12 55.899 12 58.5 12 73.663 29.047 86 50 86s38-12.337 38-27.5c0-2.601-.512-5.188-1.522-7.692-.173-.43-.028-.922.35-1.19C88.813 48.21 90 45.924 90 43.5c0-4.136-3.364-7.5-7.5-7.5-2.027 0-3.928.8-5.353 2.251-.339.347-.875.398-1.272.129C68.816 33.621 59.627 31 50 31s-18.816 2.621-25.875 7.38c-.398.269-.935.217-1.272-.129C21.428 36.8 19.527 36 17.5 36z"/><path fill="#1f212b" d="M87.104 51.5c-.201 0-.392-.122-.467-.322-.729-1.912-1.752-3.772-3.04-5.529-.163-.223-.115-.536.107-.699.224-.164.535-.116.699.107 1.341 1.83 2.406 3.77 3.167 5.766.099.258-.03.547-.289.645C87.223 51.489 87.163 51.5 87.104 51.5zM82.515 44c-.14 0-.278-.058-.377-.171-.613-.703-1.279-1.394-1.98-2.054-.201-.189-.211-.506-.021-.707.19-.201.507-.211.707-.021.725.683 1.414 1.397 2.049 2.124.182.208.16.524-.048.706C82.749 43.959 82.632 44 82.515 44zM78.5 40.175c-.11 0-.221-.036-.312-.109-.707-.566-1.462-1.122-2.243-1.651-.229-.155-.288-.466-.134-.694.155-.229.467-.288.694-.134.804.544 1.58 1.115 2.308 1.698.216.173.25.487.078.703C78.792 40.11 78.646 40.175 78.5 40.175zM22.5 39.404c-.152 0-.304-.069-.401-.202-.165-.222-.118-.534.104-.699.493-.366 1-.723 1.521-1.069.23-.153.54-.093.693.139.153.23.091.541-.139.693-.507.337-1 .684-1.479 1.04C22.709 39.372 22.604 39.404 22.5 39.404zM20.5 41.008c-.14 0-.279-.059-.378-.173-.181-.208-.158-.524.051-.705.2-.174.403-.346.608-.516.211-.176.525-.147.704.067.176.213.146.528-.067.704-.199.164-.396.332-.591.5C20.732 40.968 20.616 41.008 20.5 41.008zM15.893 46c-.102 0-.204-.03-.293-.095-.224-.161-.274-.474-.112-.698.919-1.273 1.982-2.509 3.162-3.671.195-.193.512-.191.707.006.193.196.191.513-.006.707-1.139 1.122-2.166 2.314-3.053 3.544C16.2 45.928 16.047 46 15.893 46zM12.896 51.5c-.06 0-.119-.011-.178-.033-.259-.098-.388-.387-.289-.645.463-1.216 1.043-2.419 1.725-3.576.141-.238.446-.316.685-.177.237.14.317.446.177.685-.652 1.108-1.208 2.261-1.652 3.424C13.288 51.378 13.098 51.5 12.896 51.5zM50 79c-6.979 0-13.612-3.133-17.746-8.381-.342-.435-.268-1.062.166-1.404.436-.343 1.063-.267 1.404.166C37.583 74.151 43.63 77 50 77s12.417-2.849 16.176-7.619c.342-.433.971-.508 1.404-.166s.508.97.166 1.404C63.612 75.867 56.979 79 50 79zM50 31c-.107 0-.217-.018-.324-.054-.522-.18-.801-.748-.622-1.271l6-17.5c.088-.257.276-.467.522-.581.245-.117.526-.127.78-.029l13.366 5.104c.517.197.774.775.578 1.291-.197.517-.777.774-1.291.578L56.61 13.804l-5.664 16.521C50.804 30.739 50.415 31 50 31zM65 61c-3.859 0-7-3.141-7-7s3.141-7 7-7 7 3.141 7 7S68.859 61 65 61zM65 49c-2.757 0-5 2.243-5 5s2.243 5 5 5 5-2.243 5-5S67.757 49 65 49z"/><path fill="#1f212b" d="M65 52A2 2 0 1 0 65 56 2 2 0 1 0 65 52zM35 52A2 2 0 1 0 35 56 2 2 0 1 0 35 52z"/><path fill="#1f212b" d="M35,61c-3.859,0-7-3.141-7-7s3.141-7,7-7s7,3.141,7,7S38.859,61,35,61z M35,49c-2.757,0-5,2.243-5,5s2.243,5,5,5s5-2.243,5-5S37.757,49,35,49z"/></svg>