<svg xmlns="http://www.w3.org/2000/svg" xmlns:xlink="http://www.w3.org/1999/xlink" viewBox="0 0 64 64"><path fill="#acb7d0" d="M58.82,43.72,34,58.48a4,4,0,0,1-4.1,0L5.18,43.72a2,2,0,0,1,0-3.44L31,24.91a2,2,0,0,1,2,0L58.82,40.28A2,2,0,0,1,58.82,43.72Z"/><path fill="#ed7899" d="M58.82,33.72,34,48.48a4,4,0,0,1-4.1,0L5.18,33.72a2,2,0,0,1,0-3.44L31,14.91a2,2,0,0,1,2,0L58.82,30.28A2,2,0,0,1,58.82,33.72Z"/><path fill="#85cbf8" d="M58.82,23.72,33,39.09a2,2,0,0,1-2,0L5.18,23.72a2,2,0,0,1,0-3.44L30,5.52a4,4,0,0,1,4.1,0L58.82,20.28A2,2,0,0,1,58.82,23.72Z"/><path fill="#ace3ff" d="M58.07,22H5.93a1,1,0,0,1-.51-1.86L31.49,4.61a1,1,0,0,1,1,0L58.58,20.14A1,1,0,0,1,58.07,22Z"/><path fill="#8d6c9f" d="M60.79,32a3,3,0,0,0-1.46-2.58L55.26,27l4.07-2.42a3,3,0,0,0,0-5.15L34.56,4.66a5,5,0,0,0-5.12,0L4.67,19.42a3,3,0,0,0,0,5.15L8.74,27,4.67,29.42a3,3,0,0,0,0,5.15L8.74,37,4.67,39.42a3,3,0,0,0,0,5.15L29.44,59.34a5,5,0,0,0,5.12,0L59.33,44.58a3,3,0,0,0,0-5.15L55.26,37l4.07-2.42A3,3,0,0,0,60.79,32ZM5.21,22a1,1,0,0,1,.49-.86L30.46,6.38a3,3,0,0,1,3.07,0L58.3,21.14a1,1,0,0,1,0,1.72L32.51,38.23a1,1,0,0,1-1,0L5.7,22.86A1,1,0,0,1,5.21,22ZM58.3,41.14a1,1,0,0,1,0,1.72L33.54,57.62a3,3,0,0,1-3.07,0L5.7,42.86a1,1,0,0,1,0-1.72l5-3L29.44,49.34a5,5,0,0,0,5.12,0L53.31,38.16Zm0-8.28L33.54,47.62a3,3,0,0,1-3.07,0L5.7,32.86a1,1,0,0,1,0-1.72l5-3L30.46,39.95a3,3,0,0,0,3.07,0L53.31,28.16l5,3a1,1,0,0,1,0,1.72Z"/><path fill="#8d6c9f" d="M17 20a1 1 0 0 0-1 1v2a1 1 0 0 0 2 0V21A1 1 0 0 0 17 20zM12 20a1 1 0 0 0-1 1v2a1 1 0 0 0 2 0V21A1 1 0 0 0 12 20zM27 20a1 1 0 0 0-1 1v2a1 1 0 0 0 2 0V21A1 1 0 0 0 27 20zM33 23V21a1 1 0 0 0-2 0v2a1 1 0 0 0 2 0zM22 20a1 1 0 0 0-1 1v2a1 1 0 0 0 2 0V21A1 1 0 0 0 22 20zM47 24a1 1 0 0 0 1-1V21a1 1 0 0 0-2 0v2A1 1 0 0 0 47 24zM52 24a1 1 0 0 0 1-1V21a1 1 0 0 0-2 0v2A1 1 0 0 0 52 24zM37 24a1 1 0 0 0 1-1V21a1 1 0 0 0-2 0v2A1 1 0 0 0 37 24zM42 24a1 1 0 0 0 1-1V21a1 1 0 0 0-2 0v2A1 1 0 0 0 42 24z"/></svg>